<?xml version="1.0" encoding="utf-8"?>
<!-- Generator: Adobe Illustrator 26.0.1, SVG Export Plug-In . SVG Version: 6.00 Build 0)  -->
<svg version="1.1" id="Layer_1" xmlns="http://www.w3.org/2000/svg" xmlns:xlink="http://www.w3.org/1999/xlink" x="0px" y="0px"
	 viewBox="0 0 399.4 80.8" style="enable-background:new 0 0 399.4 80.8;" xml:space="preserve">
<style type="text/css">
	.st0{fill:#FF293B;}
	.st1{fill:#F9F9F9;}
</style>
<g>
	<path class="st0" d="M16.8,44.3l5.1-2.3c0,0,3.5-1,0.4-4.9c0,0-3.6-6.5,2.7-3l2.8,0.3c0,0-12-12.3,0-17.2c0.6-0.2,2.5-0.7,3.5-0.7
		c1,0,2.6,0.2,4.5,0.6c3.7,0.8,11.5,1.8,15.8-2.5c0,0-1.5,5.4-15.7,5.6c-14.3,0.2-1.6,7.1-1.6,7.1S59,39.4,58.7,25.8
		c0,0,7.1,4.7-7.3,12.6L56,44c0,0,6.6-0.4,4.3,3.8C57.9,52,54,54.1,54,54.1s-8.8,0.1-11.7,2c-2.9,1.9-24.7,12.5-4.8,23
		c18.4-1.1,34-9.1,37.7-25c1.7-7.4-0.8-12.8-6.9-15.7c9.5-3.6,16.6-10.3,18.8-19.8C89.9,6.7,81.8,0,63.9,0H23.9L0,54.9
		C4.2,51.4,9.6,47.8,16.8,44.3z"/>
	<path class="st0" d="M119.6,35.3l-10.7,24.6c-3.3,7.5-7,10.5-12.3,10.5c-4.8,0-6.9-2.2-5.8-7c0.3-1.1,0.7-2.2,1.2-3.5l10.7-24.6
		H90.2L79.4,60c-0.7,1.7-1.3,3.3-1.6,4.7c-2.3,9.9,3.2,16.1,14.9,16.1c13.1,0,22.6-6.9,28.4-20.2l11-25.3H119.6z"/>
	<polygon class="st0" points="153.3,35.3 140.7,35.3 121.3,79.9 155.2,79.9 159.6,69.9 138.3,69.9 	"/>
	<polygon class="st0" points="192.2,35.3 179.6,35.3 160.1,79.9 194.1,79.9 198.5,69.9 177.2,69.9 	"/>
	<path class="st1" d="M252.2,49.5c2.1-8.9-3.2-14.2-14.6-14.2h-19.1L199,79.9h12.6l5.1-11.9h6.4l3.8,11.9h13.2l-4.4-13.4
		C244.2,63.9,250.2,57.7,252.2,49.5z M228.5,58.3H221l5.7-13.1h6.6c4.3,0,6.6,1.7,5.7,5.5C238,55.6,234.1,58.3,228.5,58.3z"/>
	<path class="st1" d="M294.7,35.3L284,59.8c-3.3,7.5-7,10.5-12.3,10.5c-4.8,0-6.9-2.2-5.8-7c0.3-1.1,0.7-2.2,1.2-3.5l10.7-24.6
		h-12.6L254.5,60c-0.7,1.7-1.3,3.3-1.6,4.7c-2.3,9.9,3.2,16.1,14.9,16.1c13.1,0,22.6-6.9,28.4-20.2l11-25.3H294.7z"/>
	<path class="st1" d="M320.2,48.6c0.6-2.4,3.8-4.3,9.1-4.3c4.4,0,8.5,1.1,11.5,3.4l6.8-9.4c-3.4-2.5-8.9-3.8-15.2-3.8
		c-13.2,0-22.9,6.3-25.2,15.9c-3.3,14,19.2,10.7,17.8,16.7c-0.6,2.4-3.7,4-8.6,4c-5.1,0-10-1.5-13.8-4.4l-7.2,9.4
		c3.4,2.7,9.8,4.8,17.5,4.8c13.1,0,23-6.3,25.2-15.9C341.2,51.2,318.7,54.7,320.2,48.6z"/>
	<polygon class="st1" points="386.8,35.3 379.6,52 362.4,52 369.6,35.3 357,35.3 337.6,79.9 350.2,79.9 357.8,62.6 374.9,62.6 
		367.4,79.9 380,79.9 396,43.2 399.4,35.3 	"/>
</g>
</svg>
