<?xml version="1.0" encoding="utf-8"?>
<!-- Generator: Adobe Illustrator 26.0.1, SVG Export Plug-In . SVG Version: 6.00 Build 0)  -->
<svg version="1.1" id="Layer_1" xmlns="http://www.w3.org/2000/svg" xmlns:xlink="http://www.w3.org/1999/xlink" x="0px" y="0px"
	 viewBox="0 0 336.7 303.8" style="enable-background:new 0 0 336.7 303.8;" xml:space="preserve">
<style type="text/css">
	.st0{fill:#FF293B;}
</style>
<path class="st0" d="M64.5,170.2l19.6-8.8c0,0,13.4-3.8,1.5-18.8c0,0-13.8-25,10.4-11.5l10.8,1.2c0,0-46.1-47.2,0-66.1
	c2.3-0.8,9.6-2.7,13.4-2.7s10,0.8,17.3,2.3c14.2,3.1,44.2,6.9,60.7-9.6c0,0-5.8,20.7-60.3,21.5c-54.9,0.8-6.1,27.3-6.1,27.3
	s94.9,46.5,93.7-5.8c0,0,27.3,18.1-28,48.4l17.7,21.5c0,0,25.4-1.5,16.5,14.6c-9.2,16.1-24.2,24.2-24.2,24.2s-33.8,0.4-44.9,7.7
	c-11.1,7.3-94.9,48-18.4,88.3c70.7-4.2,130.6-35,144.8-96c6.5-28.4-3.1-49.2-26.5-60.3c36.5-13.8,63.8-39.6,72.2-76.1
	C345.3,25.7,314.2,0,245.5,0H91.8L0,210.9C16.1,197.4,36.9,183.6,64.5,170.2z"/>
</svg>
